PathFileType	4	(X/Y/Z)	/Users/itak/Documents/Research/Walk-IL/dataset/trc/00578_00009.trc
DataRate	CameraRate	NumFrames	NumMarkers	Units	OrigDataRate	OrigDataStartFrame	OrigNumFrames
100.000000	100.000000	4	53	mm	100.000000	193	517
Frame#	Time	RPSI			LPSI			L3			STRN			T10			C7			CLAV			RBAK			LBAK			LSHO			LUPA			LAEL			LAOL			LWTS			LWPS			LFRA			LIFD			LHPS			LHTS			RSHO			RUPA			RAEL			RAOL			RWTS			RWPS			RFRA			RIFD			RHTS			RHPS			RBHD			LFHD			RFHD			LBHD			LHIP			RHIP			RASI			LASI			LKNE			LTHI			LANK			LTIP			LTOE			LMT1			LMT5			LHEE			RKNE			RTHI			RANK			RTIP			RTOE			RMT1			RMT5			RHEE			
		X1	Y1	Z1	X2	Y2	Z2	X3	Y3	Z3	X4	Y4	Z4	X5	Y5	Z5	X6	Y6	Z6	X7	Y7	Z7	X8	Y8	Z8	X9	Y9	Z9	X10	Y10	Z10	X11	Y11	Z11	X12	Y12	Z12	X13	Y13	Z13	X14	Y14	Z14	X15	Y15	Z15	X16	Y16	Z16	X17	Y17	Z17	X18	Y18	Z18	X19	Y19	Z19	X20	Y20	Z20	X21	Y21	Z21	X22	Y22	Z22	X23	Y23	Z23	X24	Y24	Z24	X25	Y25	Z25	X26	Y26	Z26	X27	Y27	Z27	X28	Y28	Z28	X29	Y29	Z29	X30	Y30	Z30	X31	Y31	Z31	X32	Y32	Z32	X33	Y33	Z33	X34	Y34	Z34	X35	Y35	Z35	X36	Y36	Z36	X37	Y37	Z37	X38	Y38	Z38	X39	Y39	Z39	X40	Y40	Z40	X41	Y41	Z41	X42	Y42	Z42	X43	Y43	Z43	X44	Y44	Z44	X45	Y45	Z45	X46	Y46	Z46	X47	Y47	Z47	X48	Y48	Z48	X49	Y49	Z49	X50	Y50	Z50	X51	Y51	Z51	X52	Y52	Z52	X53	Y53	Z53	

194	1.93	-633.9000244140625	988.546142578125	179.3931884765625	-570.8638916015625	995.3458862304688	60.74781799316406	-600.0723876953125	1094.77392578125	114.4200744628906	-379.1903076171875	1276.198608398438	220.9215850830078	-597.306884765625	1218.8828125	112.0665893554688	-555.0182495117188	1491.761352539062	151.6213836669922	-395.4603881835938	1387.706298828125	216.6329345703125	-657.1312866210938	1366.197631835938	190.9659881591797	-545.2105102539062	1442.026000976562	51.88869094848633	-421.5400695800781	1467.58740234375	22.48715400695801	-388.212158203125	1344.726196289062	-54.60322952270508	-332.2202453613281	1131.4580078125	-60.77800750732422	-432.1908569335938	1104.219360351562	-63.28684234619141	-222.9023132324219	934.5969848632812	68.52713012695312	-214.8996124267578	895.226806640625	-9.015682220458984	-289.930908203125	1056.4716796875	-41.93327331542969	-206.4406280517578	783.4797973632812	100.3331298828125	-195.7838439941406	842.1255493164062	14.61699485778809	-177.2828826904297	867.04052734375	75.59921264648438	-572.639404296875	1448.028686523438	315.0959167480469	-619.5935668945312	1381.36767578125	363.9071655273438	-645.2946166992188	1092.915893554688	398.0426330566406	-681.1168212890625	1075.268798828125	348.5693969726562	-502.4284362792969	878.0491333007812	431.5895690917969	-574.1104736328125	854.4122314453125	465.2524108886719	-639.465087890625	1037.57373046875	409.7127380371094	-488.2909851074219	706.2140502929688	435.0330200195312	-481.6000671386719	787.4885864257812	459.0287780761719	-554.7068481445312	781.019775390625	472.4960327148438	-498.7344665527344	1673.018188476562	256.746337890625	-307.6087341308594	1685.564331054688	176.7780303955078	-368.7515258789062	1688.150756835938	307.2641906738281	-422.5952758789062	1668.37158203125	110.1262130737305	-398.54345703125	918.5034790039062	-0.2015204131603241	-571.1937866210938	927.8242797851562	345.9637451171875	-470.1036682128906	963.7643432617188	328.01123046875	-348.25732421875	949.2376098632812	78.64579772949219	-430.6602172851562	477.736572265625	105.2044677734375	-401.4978332519531	641.063232421875	62.30630111694336	-591.3719482421875	34.64179611206055	52.25408935546875	-524.6846923828125	239.7146911621094	66.64871215820312	-455.6603698730469	36.46148681640625	225.1928405761719	-536.228759765625	39.24647903442383	210.2199401855469	-484.7605285644531	37.22818374633789	113.3077011108398	-678.1954956054688	36.39155578613281	54.59084320068359	-378.5585021972656	530.984619140625	411.5402526855469	-492.5417175292969	798.1189575195312	391.3551635742188	-419.8314208984375	51.32169342041016	422.7835693359375	-358.6912231445312	386.22412109375	421.4896545410156	-206.7334594726562	83.45404815673828	463.6273193359375	-247.3692321777344	68.65058135986328	402.1011047363281	-307.701416015625	65.75389862060547	487.0935668945312	-448.6138916015625	33.59435272216797	351.612060546875	
195	1.94	-626.9508666992188	987.8692016601562	183.9742736816406	-565.0909423828125	994.7178955078125	64.63127136230469	-593.8463134765625	1094.12451171875	118.5061264038086	-371.8592224121094	1275.219604492188	223.4294128417969	-590.9585571289062	1218.216552734375	116.3295135498047	-548.0240478515625	1491.043823242188	155.7135620117188	-388.0509948730469	1386.7783203125	219.3344879150391	-649.9465942382812	1365.526977539062	195.7646636962891	-539.1064453125	1441.386840820312	55.86477661132812	-415.6378479003906	1466.776123046875	25.42671966552734	-383.2402954101562	1343.881103515625	-51.99138641357422	-327.8313293457031	1130.432006835938	-58.62262344360352	-427.6813659667969	1103.549682617188	-60.51245880126953	-218.4703674316406	933.4577026367188	70.44710540771484	-210.8439178466797	893.9634399414062	-7.062678813934326	-285.6820373535156	1055.36865234375	-39.91004943847656	-202.2717742919922	782.1404418945312	102.3327865600586	-191.7653656005859	840.841796875	16.50178909301758	-173.0128173828125	865.7813110351562	77.38770294189453	-564.3517456054688	1447.1630859375	319.3415832519531	-611.0172119140625	1380.492797851562	368.3744201660156	-637.2421264648438	1092.078857421875	402.1930847167969	-673.2918090820312	1074.547485351562	352.8440246582031	-495.0887451171875	876.6139526367188	434.9999389648438	-566.713134765625	853.2276000976562	468.8446350097656	-631.5800170898438	1036.714477539062	413.7955017089844	-481.5769653320312	704.7274169921875	438.2129821777344	-474.52783203125	785.9515380859375	462.30517578125	-547.611572265625	779.760498046875	476.0069580078125	-490.5867004394531	1672.213256835938	260.5533447265625	-300.4007568359375	1684.5751953125	178.4256286621094	-360.0184936523438	1687.308349609375	309.6131896972656	-416.166748046875	1667.449462890625	113.0903930664062	-393.3443298339844	917.7573852539062	2.147823810577393	-562.6077270507812	927.31591796875	350.2603149414062	-461.8475341796875	963.11962890625	331.1769714355469	-342.4455261230469	948.2084350585938	80.76482391357422	-428.0196533203125	476.9334106445312	105.8464889526367	-397.7625427246094	640.2297973632812	63.50156021118164	-591.3006591796875	34.73958206176758	52.26649475097656	-523.4876098632812	239.5875549316406	66.91245269775391	-455.609130859375	36.35159683227539	225.201904296875	-536.1453857421875	39.30222320556641	210.1852569580078	-484.6225891113281	37.20160675048828	113.2357559204102	-678.0422973632812	36.89402389526367	54.48368835449219	-368.8356018066406	530.8512573242188	413.9024047851562	-484.6222839355469	797.11865234375	395.0059204101562	-392.4062194824219	50.30799865722656	435.7413635253906	-343.899169921875	387.2093811035156	425.9664611816406	-178.9190979003906	89.51036834716797	468.1109619140625	-221.3682403564453	72.87367248535156	408.350830078125	-278.3021545410156	68.90164184570312	495.5275573730469	-423.2208251953125	30.68568992614746	365.8486938476562	
196	1.95	-619.9033203125	987.1046142578125	188.6977996826172	-559.3577270507812	994.047119140625	68.63172912597656	-587.3714599609375	1093.298217773438	122.8039016723633	-364.4778442382812	1274.189331054688	225.9354705810547	-584.56884765625	1217.477661132812	120.6745300292969	-540.9937133789062	1490.265014648438	159.8505706787109	-380.566650390625	1385.793701171875	222.0337219238281	-642.6913452148438	1364.786376953125	200.6382904052734	-532.9849243164062	1440.691528320312	59.87991333007812	-409.7278137207031	1465.907470703125	28.3732852935791	-378.2929382324219	1342.955078125	-49.33906173706055	-323.5280151367188	1129.286987304688	-56.41981887817383	-423.2313537597656	1102.798950195312	-57.63162994384766	-214.2278900146484	931.9940185546875	72.22644805908203	-207.0342559814453	892.452392578125	-5.292755603790283	-281.5533142089844	1054.109619140625	-37.91304016113281	-198.4588470458984	780.415771484375	104.0771636962891	-188.0415954589844	839.26708984375	18.14316749572754	-168.9902648925781	864.1383056640625	78.94580841064453	-555.944091796875	1446.246704101562	323.6439208984375	-602.3351440429688	1379.56396484375	372.8919067382812	-629.1622314453125	1091.1923828125	406.4208374023438	-665.4067993164062	1073.7802734375	357.1798400878906	-487.7285766601562	875.125732421875	438.4866027832031	-559.2991333007812	851.9872436523438	472.5115356445312	-623.646728515625	1035.8037109375	417.9396667480469	-474.8407287597656	703.1912841796875	441.46044921875	-467.4498901367188	784.3527221679688	465.6575622558594	-540.506103515625	778.446044921875	479.5916137695312	-482.3517761230469	1671.349365234375	264.4234924316406	-293.1679992675781	1683.523559570312	180.0361175537109	-351.1570739746094	1686.411254882812	311.9732055664062	-409.7186889648438	1666.473876953125	116.0798492431641	-388.1532287597656	916.9808349609375	4.50292444229126	-553.6881103515625	926.7613525390625	354.734130859375	-453.3942565917969	962.4448852539062	334.34423828125	-336.652099609375	947.068603515625	82.89922332763672	-425.3254089355469	476.1380920410156	106.510383605957	-393.9388732910156	639.3807373046875	64.65392303466797	-591.2369384765625	34.87807083129883	52.29886627197266	-522.2728881835938	239.4657287597656	67.18202209472656	-455.5657653808594	36.25422668457031	225.2092742919922	-536.0392456054688	39.37124633789062	210.1345825195312	-484.4767761230469	37.1732063293457	113.1690521240234	-677.8937377929688	37.46796798706055	54.38285446166992	-359.0290832519531	530.5845336914062	416.1625061035156	-476.4677429199219	795.9873046875	398.6730346679688	-365.6855163574219	49.95590591430664	447.8180541992188	-329.3358764648438	388.2135620117188	430.0708618164062	-152.2391510009766	95.771484375	471.3193359375	-196.5130462646484	77.35581970214844	413.481201171875	-249.7883911132812	72.48922729492188	502.8086242675781	-398.5845947265625	28.50220680236816	379.3721618652344	
197	1.96	-612.7550659179688	986.2612915039062	193.5651550292969	-553.6334228515625	993.3250122070312	72.77112579345703	-580.6298828125	1092.302124023438	127.3358001708984	-357.0460815429688	1273.113891601562	228.4348907470703	-578.1350708007812	1216.669677734375	125.1050796508789	-533.9284057617188	1489.427734375	164.0296478271484	-373.0089721679688	1384.758666992188	224.7262115478516	-635.3644409179688	1363.980712890625	205.5857238769531	-526.8426513671875	1439.93994140625	63.9296989440918	-403.8134155273438	1464.9814453125	31.32748985290527	-373.3699035644531	1341.947509765625	-46.64503479003906	-319.3086242675781	1128.021362304688	-54.16372299194336	-418.8620910644531	1101.960815429688	-54.64116668701172	-210.1572723388672	930.2122192382812	73.86422729492188	-203.4620208740234	890.7018432617188	-3.708239793777466	-277.5328979492188	1052.69580078125	-35.93284225463867	-194.9882049560547	778.345703125	105.5599594116211	-184.6018676757812	837.4076538085938	19.54599761962891	-165.1987915039062	862.12451171875	80.27670288085938	-547.4136352539062	1445.285278320312	327.9990234375	-593.54638671875	1378.585327148438	377.4559020996094	-621.0398559570312	1090.261596679688	410.7346801757812	-657.4542846679688	1072.975708007812	361.5904541015625	-480.3345336914062	873.5833740234375	442.0406494140625	-551.859619140625	850.695068359375	476.2614135742188	-615.6507568359375	1034.845825195312	422.1550598144531	-468.0852661132812	701.6024169921875	444.7700805664062	-460.3488464355469	782.6920776367188	469.0714721679688	-533.3719482421875	777.0760498046875	483.2451171875	-474.0382995605469	1670.432250976562	268.3502197265625	-285.9140930175781	1682.419921875	181.6124725341797	-342.1781005859375	1685.4599609375	314.350341796875	-403.2491149902344	1665.455688476562	119.0936279296875	-382.9775390625	916.1702270507812	6.868725299835205	-544.4847412109375	926.1500854492188	359.3472595214844	-444.7467956542969	961.748046875	337.5070495605469	-330.8273620605469	945.8604125976562	85.02913665771484	-422.5630798339844	475.3501892089844	107.2053680419922	-390.0298461914062	638.5171508789062	65.783935546875	-591.1849975585938	35.07257461547852	52.35440063476562	-521.0413208007812	239.3575439453125	67.47237396240234	-455.5302429199219	36.16954040527344	225.2185668945312	-535.9147338867188	39.44938278198242	210.0752716064453	-484.3394165039062	37.14102554321289	113.1074447631836	-677.7638549804688	38.12042617797852	54.30269241333008	-349.1055603027344	530.2161865234375	418.3560180664062	-467.9940490722656	794.7821655273438	402.3434143066406	-339.8241882324219	50.14116668701172	458.8980712890625	-315.0325927734375	389.2019348144531	433.8188171386719	-126.8708190917969	102.0993957519531	473.2379455566406	-172.959716796875	81.95742034912109	417.4721984863281	-222.3479156494141	76.38471221923828	508.8731689453125	-374.8419189453125	26.94632720947266	392.0721740722656	
